<?xml version="1.0" encoding="UTF-8"?>
<svg width="133px" height="140px" viewBox="0 0 133 140" version="1.1" xmlns="http://www.w3.org/2000/svg" xmlns:xlink="http://www.w3.org/1999/xlink">
    <!-- Generator: Sketch 48.2 (47327) - http://www.bohemiancoding.com/sketch -->
    <title>btc</title>
    <desc>Created with Sketch.</desc>
    <defs>
        <linearGradient x1="50%" y1="0.51817602%" x2="50%" y2="100%" id="linearGradient-1">
            <stop stop-color="#FF1717" offset="0%"></stop>
            <stop stop-color="#FF0000" offset="100%"></stop>
        </linearGradient>
        <filter x="-35.3%" y="-32.2%" width="170.6%" height="164.5%" filterUnits="objectBoundingBox" id="filter-2">
            <feGaussianBlur stdDeviation="10" in="SourceGraphic"></feGaussianBlur>
        </filter>
        <linearGradient x1="50%" y1="0%" x2="50%" y2="97.6921237%" id="linearGradient-3">
            <stop stop-color="#FF9E78" offset="0%"></stop>
            <stop stop-color="#FF385D" offset="100%"></stop>
        </linearGradient>
    </defs>
    <g id="Desktop-HD" stroke="none" stroke-width="1" fill="none" fill-rule="evenodd" transform="translate(-1262.000000, -342.000000)">
        <g id="1" transform="translate(-78.000000, 0.000000)">
            <g id="头图" transform="translate(659.000000, 138.000000)">
                <g id="btc" transform="translate(701.000000, 220.000000)">
                    <g transform="translate(0.000000, 8.000000)">
                        <path d="M46.5,89.0215995 C69.9721019,99.4556823 89,88.8862795 89,65.4141776 C89,41.9420757 69.9721019,14.4556823 46.5,4.02159948 C23.0278981,-6.41248331 4,4.15691948 4,27.6290214 C4,51.1011232 23.0278981,78.5875167 46.5,89.0215995 Z" id="Oval-8" fill="url(#linearGradient-1)"></path>
                        <path d="M46.5,89.0215995 C69.9721019,99.4556823 89,88.8862795 89,65.4141776 C89,41.9420757 69.9721019,14.4556823 46.5,4.02159948 C23.0278981,-6.41248331 4,4.15691948 4,27.6290214 C4,51.1011232 23.0278981,78.5875167 46.5,89.0215995 Z" id="Oval-8" fill="url(#linearGradient-1)" filter="url(#filter-2)"></path>
                        <path d="M42.5,93.0215995 C65.9721019,103.455682 85,92.8862795 85,69.4141776 C85,45.9420757 65.9721019,18.4556823 42.5,8.02159948 C19.0278981,-2.41248331 0,8.15691948 0,31.6290214 C0,55.1011232 19.0278981,82.5875167 42.5,93.0215995 Z" id="Oval-8" fill="url(#linearGradient-3)"></path>
                        <path d="M57.1405388,52.60168 C57.8527784,47.9915762 54.2278479,43.4516849 49.2712419,39.1173602 L50.879092,33.2031647 L46.9533884,30.1611493 L45.3880267,35.9195529 C44.3560061,35.1198749 43.2960326,34.3210117 42.2427678,33.5279369 L43.8193107,27.7320416 L39.8958434,24.6911766 L38.2868752,30.6024594 C37.4326349,29.9596805 36.5940483,29.3272912 35.7800602,28.6970367 L30.3706174,24.4803947 L29.3262975,28.3259594 C29.3262975,28.3259594 32.2389884,30.5219752 32.1774921,30.5335848 C33.7674523,31.7663574 34.054808,33.013953 34.006729,33.8610983 C29.6013539,50.0621828 34.006729,33.8610983 29.6013539,50.0621828 C29.4068018,50.4669997 28.9137129,50.970697 27.8023061,50.1114833 C27.8414401,50.1912192 24.9488753,47.8992013 24.9488753,47.8992013 L23,51.593855 L28.1086697,55.5529314 C29.0590679,56.2907544 29.9904581,57.0304872 30.9073128,57.7475494 L29.282691,63.7302541 L33.2039221,66.7699689 L34.8128903,60.8516736 C35.8840449,61.706544 36.9238924,62.5219354 37.9413775,63.3094613 L36.3379998,69.1990765 L40.2637034,72.2410919 L41.8883252,66.2712433 C48.5824827,71.0388779 53.6162387,73.0941161 55.7350676,67.8553305 C57.44243,63.6379042 55.6500908,59.7765587 52.128027,56.0480914 C54.6929839,56.7492371 56.6250875,55.9794834 57.1405388,52.60168 Z M48.1710162,61.1348929 C46.9578609,65.606538 38.749775,58.6296099 36.0886601,56.5700165 L38.2443868,48.645756 C40.9055017,50.7088555 49.4389592,56.4728768 48.1710162,61.1348929 Z M49.3852896,48.5387702 C48.2783553,52.6045731 41.4466696,46.7353693 39.2305646,45.0180552 L41.1850305,37.8305879 C43.4011355,39.5479019 50.5380667,44.2966948 49.3852896,48.5387702 Z" id="symbol" fill="#FFFFFF" fill-rule="nonzero"></path>
                    </g>
                </g>
            </g>
        </g>
    </g>
</svg>