<?xml version="1.0" encoding="UTF-8"?>
<svg width="140px" height="98px" viewBox="0 0 140 98" version="1.1" xmlns="http://www.w3.org/2000/svg" xmlns:xlink="http://www.w3.org/1999/xlink">
    <!-- Generator: Sketch 48.2 (47327) - http://www.bohemiancoding.com/sketch -->
    <title>btc</title>
    <desc>Created with Sketch.</desc>
    <defs>
        <linearGradient x1="73.5096807%" y1="85.5546875%" x2="36.0563859%" y2="0%" id="linearGradient-1">
            <stop stop-color="#FF976E" offset="0%"></stop>
            <stop stop-color="#FF385D" offset="100%"></stop>
        </linearGradient>
        <filter x="-32.6%" y="-60.0%" width="165.2%" height="220.0%" filterUnits="objectBoundingBox" id="filter-2">
            <feGaussianBlur stdDeviation="10" in="SourceGraphic"></feGaussianBlur>
        </filter>
        <linearGradient x1="50%" y1="100%" x2="50%" y2="0%" id="linearGradient-3">
            <stop stop-color="#FF976E" offset="0%"></stop>
            <stop stop-color="#FF385D" offset="100%"></stop>
        </linearGradient>
    </defs>
    <g id="Desktop-HD" stroke="none" stroke-width="1" fill="none" fill-rule="evenodd" transform="translate(-792.000000, -722.000000)">
        <g id="1" transform="translate(-78.000000, 0.000000)">
            <g id="头图" transform="translate(659.000000, 138.000000)">
                <g id="xrp-btc" transform="translate(197.000000, 599.000000)">
                    <g id="btc" transform="translate(38.000000, 9.000000)">
                        <ellipse id="Oval-11" fill="url(#linearGradient-1)" filter="url(#filter-2)" cx="46" cy="25" rx="46" ry="25"></ellipse>
                        <path d="M46,56 C71.4050985,56 92,44.8071187 92,31 C92,29.931792 92,28.2651254 92,26 C76.304563,12.6666667 60.9712297,6 46,6 C31.5430303,6 16.2096969,12.6666667 0,26 C0,27.9856363 0,29.6523029 0,31 C0,44.8071187 20.5949015,56 46,56 Z" id="Oval-11" fill="#F71818"></path>
                        <ellipse id="Oval-11" fill="url(#linearGradient-3)" cx="46" cy="25" rx="46" ry="25"></ellipse>
                        <path d="M63.9032998,20.9610806 C64.6731761,17.573426 60.7549047,15.752303 55.3971943,14.5374255 L57.1351568,9.94841853 L52.8917728,9.25227063 L51.1997371,13.7203468 C50.0842021,13.5373593 48.9384521,13.3647146 47.7999538,13.1936612 L49.5040755,8.6961479 L45.2631088,8 L43.5239377,12.5874158 C42.6005696,12.4489818 41.6941219,12.312139 40.8142633,12.1681358 L40.8190977,12.1538151 L34.9670712,11.1919376 L33.8382416,14.1754286 C33.8382416,14.1754286 36.9866367,14.6504004 36.9201639,14.6798375 C38.6387888,14.9622746 38.9493982,15.710932 38.8974285,16.3044478 C34.1355565,28.8756855 38.8974285,16.3044478 34.1355565,28.8756855 C33.9252606,29.2193837 33.3922694,29.7349309 32.190924,29.5392139 C32.2332249,29.5797894 29.1065845,29.0324182 29.1065845,29.0324182 L27,32.229925 L32.5220795,33.1361107 C33.549387,33.305573 34.5561482,33.4829912 35.5471978,33.6500667 L33.7911064,38.2915831 L38.0296559,38.9877311 L39.768827,34.3955417 C40.9266629,34.6023971 42.050658,34.7933405 43.1504813,34.9731455 L41.4173532,39.5438538 L45.6607372,40.2400017 L47.4168286,35.6072368 C54.6526986,36.5086489 60.0938022,36.1450608 62.3840934,31.8368998 C64.229621,28.3680942 62.29224,26.3671663 58.4851596,25.0623862 C61.257681,24.6415151 63.3461366,23.4409583 63.9032998,20.9610806 Z M54.2079349,29.910758 C52.8966072,33.3795635 44.0242969,31.50434 41.1478361,31.0341418 L43.478011,24.8849679 C46.3544718,25.3575529 55.5784839,26.2931757 54.2079349,29.910758 Z M55.5204712,20.9109579 C54.3239602,24.066298 46.9394328,22.4631688 44.5439936,22.0701436 L46.6566211,16.4930044 C49.0520603,16.8860296 56.7665347,17.6195706 55.5204712,20.9109579 Z" id="symbol" fill="#FFFFFF" fill-rule="nonzero"></path>
                    </g>
                </g>
            </g>
        </g>
    </g>
</svg>