<?xml version="1.0" encoding="UTF-8"?>
<svg width="140px" height="98px" viewBox="0 0 140 98" version="1.1" xmlns="http://www.w3.org/2000/svg" xmlns:xlink="http://www.w3.org/1999/xlink">
    <!-- Generator: Sketch 48.2 (47327) - http://www.bohemiancoding.com/sketch -->
    <title>dog</title>
    <desc>Created with Sketch.</desc>
    <defs>
        <linearGradient x1="50%" y1="86.4409722%" x2="50%" y2="0%" id="linearGradient-1">
            <stop stop-color="#FFF23F" offset="0%"></stop>
            <stop stop-color="#FFC82F" offset="100%"></stop>
        </linearGradient>
        <filter x="-32.6%" y="-60.0%" width="165.2%" height="220.0%" filterUnits="objectBoundingBox" id="filter-2">
            <feGaussianBlur stdDeviation="10" in="SourceGraphic"></feGaussianBlur>
        </filter>
    </defs>
    <g id="Desktop-HD" stroke="none" stroke-width="1" fill="none" fill-rule="evenodd" transform="translate(-1023.000000, -777.000000)">
        <g id="1" transform="translate(-78.000000, 0.000000)">
            <g id="头图" transform="translate(659.000000, 138.000000)">
                <g id="eth-dog" transform="translate(318.000000, 663.000000)">
                    <g id="dog" transform="translate(148.000000, 0.000000)">
                        <ellipse id="Oval-11" fill="url(#linearGradient-1)" opacity="0.5" filter="url(#filter-2)" cx="46" cy="25" rx="46" ry="25"></ellipse>
                        <path d="M46,56 C71.4050985,56 92,44.8071187 92,31 C92,29.931792 92,28.2651254 92,26 C76.304563,12.6666667 60.9712297,6 46,6 C31.5430303,6 16.2096969,12.6666667 0,26 C0,27.9856363 0,29.6523029 0,31 C0,44.8071187 20.5949015,56 46,56 Z" id="Oval-11" fill="#FF9210"></path>
                        <ellipse id="Oval-11" fill="url(#linearGradient-1)" cx="46" cy="25" rx="46" ry="25"></ellipse>
                        <path d="M34.6666667,25 L28,25 L28,22 L34.6666667,22 L34.6666667,11 L45.9444444,11 C49.20372,11 52.1944308,11.3253221 54.9166667,11.975976 C57.6389025,12.6266299 59.9629533,13.5245188 61.8888889,14.6696697 C63.8148244,15.8148205 65.3148094,17.1876797 66.3888889,18.7882883 C67.4629683,20.3888969 68,22.1261168 68,24 C68,25.8738832 67.4629683,27.6111031 66.3888889,29.2117117 C65.3148094,30.8123203 63.8148244,32.1851795 61.8888889,33.3303303 C59.9629533,34.4754812 57.6389025,35.3733701 54.9166667,36.024024 C52.1944308,36.6746779 49.20372,37 45.9444444,37 L34.6666667,37 L34.6666667,25 Z M43.7777778,25 L43.7777778,31.9249249 L46.5,31.9249249 C48.3518611,31.9249249 50.0370294,31.7427446 51.5555556,31.3783784 C53.0740817,31.0140122 54.3796242,30.4934969 55.4722222,29.8168168 C56.5648203,29.1401368 57.4074044,28.3138187 58,27.3378378 C58.5925956,26.361857 58.8888889,25.2492555 58.8888889,24 C58.8888889,22.7507445 58.5925956,21.638143 58,20.6621622 C57.4074044,19.6861813 56.5648203,18.8598632 55.4722222,18.1831832 C54.3796242,17.5065031 53.0740817,16.9859878 51.5555556,16.6216216 C50.0370294,16.2572554 48.3518611,16.0750751 46.5,16.0750751 L43.7777778,16.0750751 L43.7777778,22 L50.2222222,22 L50.2222222,25 L43.7777778,25 Z" id="D" fill="#FFFFFF"></path>
                    </g>
                </g>
            </g>
        </g>
    </g>
</svg>