<?xml version="1.0" encoding="UTF-8"?>
<svg width="140px" height="98px" viewBox="0 0 140 98" version="1.1" xmlns="http://www.w3.org/2000/svg" xmlns:xlink="http://www.w3.org/1999/xlink">
    <!-- Generator: Sketch 48.2 (47327) - http://www.bohemiancoding.com/sketch -->
    <title>xrp</title>
    <desc>Created with Sketch.</desc>
    <defs>
        <linearGradient x1="50%" y1="86.4409722%" x2="50%" y2="0%" id="linearGradient-1">
            <stop stop-color="#FFFFFF" offset="0%"></stop>
            <stop stop-color="#E0E4FF" offset="100%"></stop>
        </linearGradient>
        <filter x="-32.6%" y="-60.0%" width="165.2%" height="220.0%" filterUnits="objectBoundingBox" id="filter-2">
            <feGaussianBlur stdDeviation="10" in="SourceGraphic"></feGaussianBlur>
        </filter>
        <linearGradient x1="50%" y1="86.4409722%" x2="50%" y2="0%" id="linearGradient-3">
            <stop stop-color="#FFFFFF" offset="0%"></stop>
            <stop stop-color="#E0E9FF" offset="100%"></stop>
        </linearGradient>
        <linearGradient x1="0%" y1="-0.000130229744%" x2="100%" y2="-0.000130229744%" id="linearGradient-4">
            <stop stop-color="#11BFFF" offset="0%"></stop>
            <stop stop-color="#006CDF" offset="100%"></stop>
        </linearGradient>
    </defs>
    <g id="Desktop-HD" stroke="none" stroke-width="1" fill="none" fill-rule="evenodd" transform="translate(-754.000000, -713.000000)">
        <g id="1" transform="translate(-78.000000, 0.000000)">
            <g id="头图" transform="translate(659.000000, 138.000000)">
                <g id="xrp-btc" transform="translate(197.000000, 599.000000)">
                    <g id="xrp">
                        <ellipse id="Oval-11" fill="url(#linearGradient-1)" opacity="0.5" filter="url(#filter-2)" cx="46" cy="25" rx="46" ry="25"></ellipse>
                        <path d="M46,56 C71.4050985,56 92,44.8071187 92,31 C92,29.931792 92,28.2651254 92,26 C76.304563,12.6666667 60.9712297,6 46,6 C31.5430303,6 16.2096969,12.6666667 0,26 C0,27.9856363 0,29.6523029 0,31 C0,44.8071187 20.5949015,56 46,56 Z" id="Oval-11" fill="#C0B1DC"></path>
                        <ellipse id="Oval-11" fill="url(#linearGradient-3)" cx="46" cy="25" rx="46" ry="25"></ellipse>
                        <g id="rep" transform="translate(44.500000, 24.000000) rotate(-1.000000) translate(-44.500000, -24.000000) translate(22.000000, 9.000000)" fill="url(#linearGradient-4)" fill-rule="nonzero">
                            <path d="M29.7469459,0.793267813 C26.5504865,1.93135135 24.6578108,3.98653563 24.6578108,6.15375921 C24.6578108,7.29184275 25.4118649,8.4387715 26.3558919,9.46201474 C27.1099459,10.3760197 27.4796757,11.9712531 24.8477838,12.7702703 C22.9697027,13.4513514 20.5127027,12.9972973 19.3889189,11.8562654 C18.2648919,10.9422604 16.9465135,10.0282555 15.2484324,9.34702703 C12.051973,8.20894349 8.28121622,8.20894349 5.08451351,9.34702703 C1.88781081,10.4851106 0,12.5454545 0,14.7132678 C0,16.8810811 1.87808108,18.9355283 5.08378378,20.0767076 C8.28024324,21.2147912 12.051,21.2147912 15.2477027,20.0767076 C16.9457838,19.5047174 18.2639189,18.5966093 19.1984595,17.5674693 C19.9525135,16.7684521 22.0251892,15.7394595 24.6573243,16.6534644 C26.5354054,17.3345455 27.0997297,18.8236364 26.1654324,19.9617199 C25.2216486,20.9907125 24.6573243,22.1318919 24.6573243,23.2699754 C24.6573243,25.4401474 26.5354054,27.4922359 29.7464595,28.6304668 C32.9429189,29.7685504 36.7136757,29.7685504 39.9103784,28.6304668 C43.1070811,27.4923833 45,25.437199 45,23.2699754 C45,21.1027518 43.1170541,19.047715 39.9108649,17.9065356 C38.2127838,17.3345455 36.3298378,17.1075184 34.262027,17.1075184 C32.5639459,17.1075184 30.3112703,16.4264373 30.3112703,14.7132678 C30.3112703,13.3422604 32.0093514,12.3190172 34.262027,12.3190172 C36.1401081,12.3190172 38.2127838,12.0919902 39.9108649,11.52 C43.1073243,10.3819165 45,8.32673219 45,6.15965602 C45,3.99257985 43.1170541,1.93739558 39.9108649,0.799164619 C38.4027568,0.227174447 36.5244324,0.000147420147 34.8270811,0.000147420147 C33.1387297,-0.00574938575 31.2460541,0.227174447 29.7476757,0.793267813" id="Shape"></path>
                        </g>
                    </g>
                </g>
            </g>
        </g>
    </g>
</svg>