<?xml version="1.0" encoding="UTF-8"?>
<svg width="133px" height="141px" viewBox="0 0 133 141" version="1.1" xmlns="http://www.w3.org/2000/svg" xmlns:xlink="http://www.w3.org/1999/xlink">
    <!-- Generator: Sketch 48.2 (47327) - http://www.bohemiancoding.com/sketch -->
    <title>dash</title>
    <desc>Created with Sketch.</desc>
    <defs>
        <linearGradient x1="77.0634191%" y1="83.4244972%" x2="19.3704044%" y2="8.22680994%" id="linearGradient-1">
            <stop stop-color="#00BEFF" offset="0%"></stop>
            <stop stop-color="#0040FF" offset="100%"></stop>
        </linearGradient>
        <filter x="-35.3%" y="-32.6%" width="170.6%" height="165.2%" filterUnits="objectBoundingBox" id="filter-2">
            <feGaussianBlur stdDeviation="10" in="SourceGraphic"></feGaussianBlur>
        </filter>
        <linearGradient x1="75.4076885%" y1="81.2664003%" x2="19.3704044%" y2="8.22680994%" id="linearGradient-3">
            <stop stop-color="#0046FF" offset="0%"></stop>
            <stop stop-color="#002CAF" offset="100%"></stop>
        </linearGradient>
    </defs>
    <g id="Desktop-HD" stroke="none" stroke-width="1" fill="none" fill-rule="evenodd" transform="translate(-572.000000, -410.000000)">
        <g id="1" transform="translate(-78.000000, 0.000000)">
            <g id="头图" transform="translate(659.000000, 138.000000)">
                <g id="dash" transform="translate(11.000000, 292.000000)">
                    <path d="M46.5,93.4492188 C69.9721019,83.7561899 89,56.8705394 89,33.3984375 C89,9.92633563 69.9721019,-1.24381008 46.5,8.44921875 C23.0278981,18.1422476 4,45.0278981 4,68.5 C4,91.9721019 23.0278981,103.142248 46.5,93.4492188 Z" id="Oval-9" fill="url(#linearGradient-1)" filter="url(#filter-2)"></path>
                    <path d="M42.5,89.4492188 C65.9721019,79.7561899 85,52.8705394 85,29.3984375 C85,5.92633563 65.9721019,-5.24381008 42.5,4.44921875 C19.0278981,14.1422476 0,41.0278981 0,64.5 C0,87.9721019 19.0278981,99.1422476 42.5,89.4492188 Z" id="Oval-9" fill="url(#linearGradient-3)"></path>
                    <path d="M46.5,93.4492188 C69.9721019,83.7561899 89,56.8705394 89,33.3984375 C89,9.92633563 69.9721019,-1.24381008 46.5,8.44921875 C23.0278981,18.1422476 4,45.0278981 4,68.5 C4,91.9721019 23.0278981,103.142248 46.5,93.4492188 Z" id="Oval-9" fill="url(#linearGradient-1)"></path>
                    <path d="M43.1305,52.4711473 L41.146,59.3562513 L25.0135,66.9843666 L27.16,60.0226624 L43.1305,52.4711473 Z M69.1315,34.2772957 C69.2773471,35.0949396 69.1624391,36.0591561 68.80075,37.0526881 L64.825,51.4335876 C64.4647026,52.470331 64.0216497,53.5094188 63.502,54.5364069 C62.8733621,55.6310402 62.1528872,56.6921855 61.3555,57.6978612 C60.53875,58.7590545 59.5735,59.7014647 58.72975,60.5796747 C57.8875513,61.2872313 57.0008333,61.8774695 56.104,62.3274883 L26.00575,76.5591897 L28.15225,69.1114854 L55.28725,56.2809315 L59.5735,41.1052147 L32.43175,53.9389602 L34.57825,46.491256 L64.53475,32.3265799 C65.3342474,31.9240875 66.127357,31.7229999 66.84325,31.7412753 C67.54525,31.6793405 68.146,31.921781 68.4835,32.437197 C68.864257,32.9121962 69.0861917,33.5424149 69.1315,34.2772957 Z" id="Shape" fill="#FFFFFF" fill-rule="nonzero"></path>
                </g>
            </g>
        </g>
    </g>
</svg>