<?xml version="1.0" encoding="UTF-8"?>
<svg viewBox="0 0 272 194" version="1.1" xmlns="http://www.w3.org/2000/svg" xmlns:xlink="http://www.w3.org/1999/xlink">
    <!-- Generator: Sketch 48.2 (47327) - http://www.bohemiancoding.com/sketch -->
    <title>Group 4</title>
    <desc>Created with Sketch.</desc>
    <defs>
        <filter x="-7.6%" y="-357.0%" width="115.2%" height="814.0%" filterUnits="objectBoundingBox" id="filter-1">
            <feGaussianBlur stdDeviation="11.9001116" in="SourceGraphic"></feGaussianBlur>
        </filter>
        <filter x="-7.6%" y="-357.0%" width="115.2%" height="814.0%" filterUnits="objectBoundingBox" id="filter-2">
            <feGaussianBlur stdDeviation="11.9001116" in="SourceGraphic"></feGaussianBlur>
        </filter>
        <filter x="-7.6%" y="-357.0%" width="115.2%" height="814.0%" filterUnits="objectBoundingBox" id="filter-3">
            <feGaussianBlur stdDeviation="11.9001116" in="SourceGraphic"></feGaussianBlur>
        </filter>
        <filter x="-7.6%" y="-357.0%" width="115.2%" height="814.0%" filterUnits="objectBoundingBox" id="filter-4">
            <feGaussianBlur stdDeviation="11.9001116" in="SourceGraphic"></feGaussianBlur>
        </filter>
        <filter x="-7.6%" y="-357.0%" width="115.2%" height="814.0%" filterUnits="objectBoundingBox" id="filter-5">
            <feGaussianBlur stdDeviation="11.9001116" in="SourceGraphic"></feGaussianBlur>
        </filter>
        <circle id="path-6" cx="25" cy="25" r="25"></circle>
    </defs>
    <g id="Desktop-HD" stroke="none" stroke-width="1" fill="none" fill-rule="evenodd" transform="translate(-1136.000000, -1892.000000)">
        <g id="Group-8" transform="translate(0.000000, 1570.000000)">
            <g id="Group-4" transform="translate(1340.040151, 526.040151) scale(-1, 1) rotate(-45.000000) translate(-1340.040151, -526.040151) translate(1092.040151, 501.040151)">
                <g id="Group-3" transform="translate(0.000000, 0.000000)">
                    <polygon id="Rectangle" fill="#4000FF" filter="url(#filter-1)" points="0.289321881 2.84217094e-14 470.289322 3.20299343e-14 470.289322 10 0.289321881 10"></polygon>
                    <polygon id="Rectangle" fill="#4000FF" filter="url(#filter-2)" points="0.289321881 40 470.289322 40 470.289322 50 0.289321881 50"></polygon>
                    <polygon id="Rectangle" fill="#1777FF" filter="url(#filter-3)" points="0.289321881 10 470.289322 10 470.289322 20 0.289321881 20"></polygon>
                    <rect id="Rectangle" fill="#88F5FF" filter="url(#filter-4)" x="0.289321881" y="20" width="470" height="10"></rect>
                    <polygon id="Rectangle" fill="#1777FF" filter="url(#filter-5)" points="0.289321881 30 470.289322 30 470.289322 40 0.289321881 40"></polygon>
                </g>
                <g id="Group-3" transform="translate(0.000000, -0.000000)">
                    <polygon id="Rectangle" fill="#4000FF" points="0.289321881 2.84217094e-14 470.289322 3.20299343e-14 470.289322 10 0.289321881 10"></polygon>
                    <polygon id="Rectangle" fill="#4000FF" points="0.289321881 40 470.289322 40 470.289322 50 0.289321881 50"></polygon>
                    <polygon id="Rectangle" fill="#1777FF" points="0.289321881 10 470.289322 10 470.289322 20 0.289321881 20"></polygon>
                    <rect id="Rectangle" fill="#88F5FF" x="0.289321881" y="20" width="470" height="10"></rect>
                    <polygon id="Rectangle" fill="#1777FF" points="0.289321881 30 470.289322 30 470.289322 40 0.289321881 40"></polygon>
                </g>
                <g id="eth-logo" transform="translate(471.000000, 25.000000) rotate(90.000000) translate(-471.000000, -25.000000) translate(446.000000, 0.000000)">
                    <g id="Oval-3">
                        <use fill="#FFFFFF" fill-rule="evenodd" xlink:href="#path-6"></use>
                        <circle stroke="#181162" stroke-width="3" cx="25" cy="25" r="26.5"></circle>
                    </g>
                    <g id="ethereum" transform="translate(16.000000, 10.000000)" fill="#010101" fill-rule="nonzero">
                        <g id="Group" opacity="0.6" transform="translate(0.000000, 10.800000)">
                            <polygon id="Shape" points="9 0.0141176471 0.0211764706 4.09764706 9 9.40235294 17.9752941 4.09764706"></polygon>
                        </g>
                        <g id="Group" opacity="0.45">
                            <polygon id="Shape" points="0.0211764706 14.8976471 9 20.2023529 9 0"></polygon>
                        </g>
                        <g id="Group" opacity="0.8" transform="translate(9.000000, 0.000000)">
                            <polygon id="Shape" points="0 0 0 20.2023529 8.97529412 14.8976471"></polygon>
                        </g>
                        <g id="Group" opacity="0.45" transform="translate(0.000000, 16.588235)">
                            <polygon id="Shape" points="0.0211764706 0.0105882353 9 12.66 9 5.31529412"></polygon>
                        </g>
                        <g id="Group" opacity="0.8" transform="translate(9.000000, 16.588235)">
                            <polygon id="Shape" points="0 5.31529412 0 12.66 8.98235294 0.0105882353"></polygon>
                        </g>
                    </g>
                </g>
            </g>
        </g>
    </g>
</svg>
